HIERARCHY
ROOT hip
{
  OFFSET 0 0 0
  CHANNELS 6 Xposition Yposition Zposition Zrotation Yrotation Xrotation
  JOINT abdomen
  {
    OFFSET 0 20.6881 -0.73152
    CHANNELS 3 Zrotation Xrotation Yrotation
    JOINT chest
    {
      OFFSET 0 11.7043 -0.48768
      CHANNELS 3 Zrotation Xrotation Yrotation
      JOINT neck
      {
        OFFSET 0 22.1894 -2.19456
        CHANNELS 3 Zrotation Xrotation Yrotation
        JOINT head
        {
          OFFSET -0.24384 7.07133 1.2192
          CHANNELS 3 Zrotation Xrotation Yrotation
          JOINT leftEye
          {
            OFFSET 4.14528 8.04674 8.04672
            CHANNELS 3 Zrotation Xrotation Yrotation
            End Site
            {
              OFFSET 1 0 0
            }
          }
          JOINT rightEye
          {
            OFFSET -3.6576 8.04674 8.04672
            CHANNELS 3 Zrotation Xrotation Yrotation
            End Site
            {
              OFFSET 1 0 0
            }
          }
        }
      }
      JOINT rCollar
      {
        OFFSET -2.68224 19.2634 -4.8768
        CHANNELS 3 Zrotation Xrotation Yrotation
        JOINT rShldr
        {
          OFFSET -8.77824 -1.95073 1.46304
          CHANNELS 3 Zrotation Xrotation Yrotation
          JOINT rForeArm
          {
            OFFSET -28.1742 -1.7115 0.48768
            CHANNELS 3 Zrotation Xrotation Yrotation
            JOINT rHand
            {
              OFFSET -22.5879 0.773209 7.07136
              CHANNELS 3 Zrotation Xrotation Yrotation
              JOINT rThumb1
              {
                OFFSET -1.2192 -0.487915 3.41376
                CHANNELS 3 Zrotation Xrotation Yrotation
                JOINT rThumb2
                {
                  OFFSET -3.37035 -0.52449 3.41376
                  CHANNELS 3 Zrotation Xrotation Yrotation
                  End Site
                  {
                    OFFSET -1.78271 -1.18214 1.43049
                  }
                }
              }
              JOINT rIndex1
              {
                OFFSET -7.75947 0.938293 5.60832
                CHANNELS 3 Zrotation Xrotation Yrotation
                JOINT rIndex2
                {
                  OFFSET -2.54057 -0.884171 1.56538
                  CHANNELS 3 Zrotation Xrotation Yrotation
                  End Site
                  {
                    OFFSET -1.62519 -0.234802 1.16502
                  }
                }
              }
              JOINT rMid1
              {
                OFFSET -8.24714 1.18213 3.41376
                CHANNELS 3 Zrotation Xrotation Yrotation
                JOINT rMid2
                {
                  OFFSET -3.10165 -0.590103 1.0647
                  CHANNELS 3 Zrotation Xrotation Yrotation
                  End Site
                  {
                    OFFSET -2.48547 -0.328903 0.83742
                  }
                }
              }
              JOINT rRing1
              {
                OFFSET -8.82822 0.546677 1.51678
                CHANNELS 3 Zrotation Xrotation Yrotation
                JOINT rRing2
                {
                  OFFSET -2.60934 -0.819778 -0.0198488
                  CHANNELS 3 Zrotation Xrotation Yrotation
                  End Site
                  {
                    OFFSET -2.33842 -0.294052 0.168128
                  }
                }
              }
              JOINT rPinky1
              {
                OFFSET -8.27202 -0.0477905 -0.4584
                CHANNELS 3 Zrotation Xrotation Yrotation
                JOINT rPinky2
                {
                  OFFSET -1.82734 -0.647385 -0.700984
                  CHANNELS 3 Zrotation Xrotation Yrotation
                  End Site
                  {
                    OFFSET -1.69225 -0.51767 -0.607171
                  }
                }
              }
            }
          }
        }
      }
      JOINT lCollar
      {
        OFFSET 2.68224 19.2634 -4.8768
        CHANNELS 3 Zrotation Xrotation Yrotation
        JOINT lShldr
        {
          OFFSET 8.77824 -1.95073 1.46304
          CHANNELS 3 Zrotation Xrotation Yrotation
          JOINT lForeArm
          {
            OFFSET 28.1742 -1.7115 0.48768
            CHANNELS 3 Zrotation Xrotation Yrotation
            JOINT lHand
            {
              OFFSET 22.5879 0.773209 7.07136
              CHANNELS 3 Zrotation Xrotation Yrotation
              JOINT lThumb1
              {
                OFFSET 1.2192 -0.487915 3.41376
                CHANNELS 3 Zrotation Xrotation Yrotation
                JOINT lThumb2
                {
                  OFFSET 3.37035 -0.52449 3.41376
                  CHANNELS 3 Zrotation Xrotation Yrotation
                  End Site
                  {
                    OFFSET 1.78271 -1.18214 1.43049
                  }
                }
              }
              JOINT lIndex1
              {
                OFFSET 7.75947 0.938293 5.60832
                CHANNELS 3 Zrotation Xrotation Yrotation
                JOINT lIndex2
                {
                  OFFSET 2.54057 -0.884171 1.56538
                  CHANNELS 3 Zrotation Xrotation Yrotation
                  End Site
                  {
                    OFFSET 1.62519 -0.234802 1.16502
                  }
                }
              }
              JOINT lMid1
              {
                OFFSET 8.24714 1.18213 3.41376
                CHANNELS 3 Zrotation Xrotation Yrotation
                JOINT lMid2
                {
                  OFFSET 3.10165 -0.590103 1.0647
                  CHANNELS 3 Zrotation Xrotation Yrotation
                  End Site
                  {
                    OFFSET 2.48547 -0.328903 0.83742
                  }
                }
              }
              JOINT lRing1
              {
                OFFSET 8.82822 0.546677 1.51678
                CHANNELS 3 Zrotation Xrotation Yrotation
                JOINT lRing2
                {
                  OFFSET 2.60934 -0.819778 -0.0198488
                  CHANNELS 3 Zrotation Xrotation Yrotation
                  End Site
                  {
                    OFFSET 2.33842 -0.294052 0.168128
                  }
                }
              }
              JOINT lPinky1
              {
                OFFSET 8.27202 -0.0477905 -0.4584
                CHANNELS 3 Zrotation Xrotation Yrotation
                JOINT lPinky2
                {
                  OFFSET 1.82734 -0.647385 -0.700984
                  CHANNELS 3 Zrotation Xrotation Yrotation
                  End Site
                  {
                    OFFSET 1.69225 -0.51767 -0.607171
                  }
                }
              }
            }
          }
        }
      }
    }
  }
  JOINT rButtock
  {
    OFFSET -8.77824 4.35084 1.2192
    CHANNELS 3 Zrotation Xrotation Yrotation
    JOINT rThigh
    {
      OFFSET 0 -1.70687 -2.19456
      CHANNELS 3 Zrotation Xrotation Yrotation
      JOINT rShin
      {
        OFFSET 0 -36.8199 0.73152
        CHANNELS 3 Zrotation Xrotation Yrotation
        JOINT rFoot
        {
          OFFSET 0.73152 -45.1104 -5.12064
          CHANNELS 3 Zrotation Xrotation Yrotation
          End Site
          {
            OFFSET -1.1221 -3.69964 12.103
          }
        }
      }
    }
  }
  JOINT lButtock
  {
    OFFSET 8.77824 4.35084 1.2192
    CHANNELS 3 Zrotation Xrotation Yrotation
    JOINT lThigh
    {
      OFFSET 0 -1.70687 -2.19456
      CHANNELS 3 Zrotation Xrotation Yrotation
      JOINT lShin
      {
        OFFSET 0 -36.8199 0.73152
        CHANNELS 3 Zrotation Xrotation Yrotation
        JOINT lFoot
        {
          OFFSET -0.73152 -45.1104 -5.12064
          CHANNELS 3 Zrotation Xrotation Yrotation
          End Site
          {
            OFFSET 1.1221 -3.69964 12.103
          }
        }
      }
    }
  }
}
MOTION
Frames:	4
Frame Time:	0.00833333
16.9738 74.0649 -114.154 -182.605 44.4088 -175.385 6.99395 9.77528 0.635042 0.841973 -5.84667 0.421103 -5.0426 -2.25455 -3.98345 2.3486 -13.893 -6.05498 -0.0 0.0 0.0 -0.0 0.0 0.0 -1.10392e-13 -4.07718e-14 -1.50072e-13 94.7055 46.4228 -21.3307 -25.2466 -47.5724 99.0477 -0.0439084 -6.03454 -0.851184 -4.1626e-10 1.58081e-09 6.97374e-10 -7.21402e-10 2.7371e-09 1.20533e-09 -4.16262e-10 1.58082e-09 6.97364e-10 7.73091 5.47488 0.417314 -4.16263e-10 1.58081e-09 6.97377e-10 2.90554 0.965183 0.102902 -4.16248e-10 1.58081e-09 6.97376e-10 10.2786 0.731801 0.0259123 -4.16268e-10 1.58081e-09 6.97384e-10 2.22167 -0.733487 -0.20892 -1.10499e-13 -4.07681e-14 -1.50249e-13 -104.754 44.2154 36.9689 27.9782 -40.5005 -84.8454 0.210463 -12.948 1.85174 -3.00742e-11 -8.2547e-11 -5.96417e-10 -4.73382e-11 -1.37989e-10 -1.02962e-09 -3.0079e-11 -8.25429e-11 -5.96399e-10 -7.73091 5.47488 -0.417314 -3.00738e-11 -8.25495e-11 -5.96407e-10 -2.90554 0.965183 -0.102902 -3.00805e-11 -8.25501e-11 -5.9641e-10 -10.2786 0.731801 -0.0259123 -3.00671e-11 -8.25475e-11 -5.96412e-10 -2.22167 -0.733487 0.20892 -2.03217e-16 0.0 -3.88251e-19 13.3576 -13.7512 -6.00958 -0.383276 48.0255 1.58377 -8.1665 -12.2972 -26.2647 2.03217e-16 0.0 3.88251e-19 14.3485 -54.3929 3.21217 1.42208 64.5071 -1.81416 0.192711 -4.95874 -2.08632
18.8674 74.618 -116.281 -182.08 44.3867 -175.586 7.32283 9.91696 0.949061 0.574391 -5.82007 0.495379 -5.26837 -2.1925 -4.15867 2.50284 -13.728 -6.32144 -0.0 0.0 0.0 -0.0 0.0 0.0 -1.27185e-13 -2.77798e-14 -1.84249e-14 94.6111 46.9602 -21.693 -24.8483 -48.2064 100.475 -0.0335576 -5.33469 -0.751797 -1.60916e-09 3.11394e-09 1.32134e-09 -2.78966e-09 5.39841e-09 2.28495e-09 -1.60916e-09 3.11394e-09 1.32133e-09 7.73091 5.47488 0.417314 -1.60916e-09 3.11394e-09 1.32135e-09 2.90554 0.965183 0.102902 -1.60914e-09 3.11394e-09 1.32134e-09 10.2786 0.731801 0.0259123 -1.60916e-09 3.11394e-09 1.32134e-09 2.22167 -0.733487 -0.20892 -1.2733e-13 -2.77658e-14 -1.85801e-14 -105.404 43.9832 37.8931 27.9061 -40.8666 -85.5041 0.20741 -12.8565 1.83819 -7.72346e-10 -1.36053e-09 -2.3707e-09 -1.31713e-09 -2.35628e-09 -4.10355e-09 -7.72349e-10 -1.36053e-09 -2.37069e-09 -7.73091 5.47488 -0.417314 -7.72346e-10 -1.36054e-09 -2.3707e-09 -2.90554 0.965183 -0.102902 -7.72352e-10 -1.36054e-09 -2.3707e-09 -10.2786 0.731801 -0.0259123 -7.72339e-10 -1.36054e-09 -2.3707e-09 -2.22167 -0.733487 0.20892 -2.03217e-16 0.0 -3.88251e-19 13.1145 -11.1604 -6.3128 -0.368039 47.2938 1.54844 -6.52322 -10.0692 -24.2497 2.03217e-16 0.0 3.88251e-19 13.6796 -53.9529 2.70429 1.08435 59.954 -1.44041 0.146231 -3.53429 -2.62767
20.7457 75.1456 -118.407 -181.581 44.3873 -175.766 7.59113 10.0162 1.2407 0.352229 -5.76093 0.562618 -5.47707 -2.12971 -4.30964 2.60593 -13.5336 -6.55121 -0.0 0.0 0.0 -0.0 0.0 0.0 -1.43222e-13 -2.9874e-14 1.1134e-13 94.4598 47.4359 -22.056 -24.4771 -48.7643 101.742 -0.026064 -4.68494 -0.659826 -2.69743e-09 4.31771e-09 1.81959e-09 -4.67622e-09 7.48957e-09 3.14744e-09 -2.69743e-09 4.31772e-09 1.81958e-09 7.73091 5.47488 0.417314 -2.69744e-09 4.31772e-09 1.81961e-09 2.90554 0.965183 0.102902 -2.69742e-09 4.31772e-09 1.81959e-09 10.2786 0.731801 0.0259123 -2.69744e-09 4.31772e-09 1.81959e-09 2.22167 -0.733487 -0.20892 -1.43395e-13 -2.98506e-14 1.11198e-13 -106.026 43.6287 38.7121 27.8404 -41.1861 -86.0737 0.203213 -12.733 1.81989 -1.48036e-09 -2.37323e-09 -3.85126e-09 -2.52992e-09 -4.11605e-09 -6.66941e-09 -1.48037e-09 -2.37322e-09 -3.85125e-09 -7.73091 5.47488 -0.417314 -1.48036e-09 -2.37323e-09 -3.85125e-09 -2.90554 0.965183 -0.102902 -1.48037e-09 -2.37323e-09 -3.85126e-09 -10.2786 0.731801 -0.0259123 -1.48036e-09 -2.37323e-09 -3.85126e-09 -2.22167 -0.733487 0.20892 -2.03217e-16 0.0 -3.88251e-19 12.7754 -8.81818 -6.64573 -0.362876 46.8266 1.51775 -5.0179 -7.73151 -22.1794 2.03217e-16 0.0 3.88251e-19 12.9268 -53.3841 2.03097 0.842545 55.3629 -1.15116 0.137442 -1.74434 -3.17978
22.6036 75.633 -120.531 -181.136 44.4279 -175.94 7.75979 10.0266 1.54363 0.200644 -5.65743 0.631368 -5.65932 -2.05443 -4.43816 2.66346 -13.3007 -6.75017 -0.0 0.0 0.0 -0.0 0.0 0.0 -1.5397e-13 -3.5596e-14 2.41772e-13 94.2601 47.8174 -22.4178 -24.1342 -49.2223 102.858 -0.0226751 -4.29471 -0.604727 -3.37317e-09 4.77731e-09 2.03403e-09 -5.84742e-09 8.28959e-09 3.5186e-09 -3.37317e-09 4.77732e-09 2.03402e-09 7.73091 5.47488 0.417314 -3.37318e-09 4.77733e-09 2.03405e-09 2.90554 0.965183 0.102902 -3.37316e-09 4.77732e-09 2.03402e-09 10.2786 0.731801 0.0259123 -3.37317e-09 4.77731e-09 2.03403e-09 2.22167 -0.733487 -0.20892 -1.54156e-13 -3.557e-14 2.41623e-13 -106.639 43.2002 39.4628 27.7767 -41.4588 -86.5781 0.202585 -12.7181 1.81766 -1.96911e-09 -2.87074e-09 -4.6693e-09 -3.36887e-09 -4.98273e-09 -8.08759e-09 -1.96911e-09 -2.87073e-09 -4.66929e-09 -7.73091 5.47488 -0.417314 -1.96911e-09 -2.87074e-09 -4.6693e-09 -2.90554 0.965183 -0.102902 -1.96911e-09 -2.87074e-09 -4.6693e-09 -10.2786 0.731801 -0.0259123 -1.9691e-09 -2.87074e-09 -4.66931e-09 -2.22167 -0.733487 0.20892 -2.03217e-16 0.0 -3.88251e-19 12.3373 -6.7888 -6.94089 -0.367871 46.731 1.49902 -3.83006 -5.60354 -20.3752 2.03217e-16 0.0 3.88251e-19 12.1391 -52.8213 1.18489 0.66758 51.0125 -0.919655 0.183294 0.28531 -3.60237
